<?xml version="1.0" encoding="UTF-8"?>
<svg width="32" height="32" viewBox="0 0 32 32" fill="none" xmlns="http://www.w3.org/2000/svg">
  <!-- Bee Body -->
  <path d="M16 4C9.373 4 4 9.373 4 16C4 22.627 9.373 28 16 28C22.627 28 28 22.627 28 16C28 9.373 22.627 4 16 4Z" fill="#FFD700"/>
  <!-- Black Stripes -->
  <path d="M16 8H28V12H16V8Z" fill="#000000"/>
  <path d="M16 16H28V20H16V16Z" fill="#000000"/>
  <path d="M16 24H28V28H16V24Z" fill="#000000"/>
  <!-- Wings -->
  <path d="M8 12C8 12 4 8 4 16C4 24 8 20 8 20" fill="#FFFFFF" fill-opacity="0.8"/>
  <path d="M24 12C24 12 28 8 28 16C28 24 24 20 24 20" fill="#FFFFFF" fill-opacity="0.8"/>
  <!-- Eyes -->
  <circle cx="12" cy="12" r="2" fill="#000000"/>
  <circle cx="20" cy="12" r="2" fill="#000000"/>
  <!-- Smile -->
  <path d="M14 18C14 18 16 20 18 18" stroke="#000000" stroke-width="2" stroke-linecap="round"/>
</svg> 